<?xml version="1.0" encoding="UTF-8"?>
<svg width="107px" height="45px" viewBox="0 0 107 45" version="1.1" xmlns="http://www.w3.org/2000/svg" xmlns:xlink="http://www.w3.org/1999/xlink">
    <!-- Generator: sketchtool 49.3 (51167) - http://www.bohemiancoding.com/sketch -->
    <title>EA64AF71-318F-4A68-860E-9F067894AA9F</title>
    <desc>Created with sketchtool.</desc>
    <defs></defs>
    <g id="Main-page" stroke="none" stroke-width="1" fill="none" fill-rule="evenodd">
        <g id="icons" transform="translate(-45.000000, -36.000000)" fill="#3A3A3A">
            <path d="M66.2911441,36.0237836 C79.26135,35.432428 89.9030029,45.9463235 89.685451,58.8921495 C89.5112225,70.8080441 79.9576407,80.5991367 68.0973233,80.9934784 C66.1605506,81.037085 64.3107363,80.8620312 62.5263746,80.4676895 C62.0258183,80.3582024 61.6122203,79.9638608 61.5034444,79.4383856 L57.0423842,59.6585589 C56.9117908,59.2861774 57.3687121,59.0672033 57.5862639,59.374018 L62.918155,67.631978 C63.3314412,68.2449801 64.1801428,68.332507 64.6806992,67.7850717 L64.8331102,67.631978 C65.8993637,66.448953 67.2922567,65.6166631 68.8154315,65.2003613 C72.4281017,64.1927038 79.2831675,62.199349 81.6117206,60.5347692 C84.7017053,58.2785199 85.0283448,54.9054399 84.9847097,53.2844666 C84.9628922,52.8025981 84.549606,52.4082564 84.0490497,52.4302165 L72.4281017,52.9340453 C70.9482503,52.999612 69.4683988,52.6491907 68.1409584,51.948348 L65.5730359,50.5463488 C64.0495494,49.7360191 62.2870052,49.3855977 60.5677843,49.626532 L55.5840387,50.2837681 C52.537689,50.6997562 49.9694549,52.7150711 48.8816955,55.5846362 C48.0326821,57.8405717 47.0970221,60.6006496 46.4222372,63.382374 C46.2916438,63.8203223 45.6389882,63.8203223 45.5302122,63.3604139 C45.1166143,61.4329396 44.92088,59.3956645 45.0296559,57.2711762 C45.6608057,45.6837427 54.778972,36.5495725 66.2911441,36.0237836 Z M66.2758795,57.3062245 C65.2948318,57.4643428 64.3725177,56.7532348 64.2547695,55.7459734 C64.1173498,54.7585121 64.823839,53.8499684 65.8048867,53.7116503 C66.7859344,53.573615 67.6885769,54.2844401 67.8259967,55.2721843 C67.9631354,56.2593628 67.2569272,57.1679064 66.2758795,57.3062245 Z M101.339304,49.834991 C101.621731,49.7255245 101.925797,49.9223944 101.925797,50.2284481 L101.925797,52.9170244 L104.162451,52.9170244 C104.401319,52.9170244 104.59691,53.1136115 104.59691,53.3540418 L104.59691,55.3651704 C104.59691,55.6056007 104.401319,55.8021878 104.162451,55.8021878 L101.925797,55.8021878 L101.925797,61.1357801 C101.925797,61.6604838 102.338337,62.0754382 102.859633,62.0754382 L104.162451,62.0754382 C104.401319,62.0754382 104.59691,62.2723082 104.59691,62.5127385 L104.59691,64.4144006 C104.59691,64.6551137 104.401319,64.8517008 104.162451,64.8517008 L102.012633,64.8517008 C100.296993,64.8517008 98.9070588,63.4526794 98.9070588,61.7258243 L98.9070588,55.8239679 L97.2785365,55.8239679 C97.0396679,55.8239679 96.8440766,55.6273808 96.8440766,55.3869505 L96.8440766,53.3761048 C96.8440766,53.1353916 97.0396679,52.9388045 97.2785365,52.9388045 L98.9073398,52.9388045 L98.9073398,51.0807027 C98.9073398,50.8841156 99.0155333,50.7310888 99.1894859,50.6657483 L101.339304,49.834991 Z M115.064079,59.6930852 L115.064079,53.3759916 C115.064079,53.1355613 115.25939,52.9389742 115.498539,52.9389742 L117.648357,52.9389742 C117.887226,52.9389742 118.082536,53.1355613 118.082536,53.3759916 L118.082536,64.4142874 C118.082536,64.6550006 117.887226,64.8515877 117.648357,64.8515877 L115.498539,64.8515877 C115.25939,64.8515877 115.064079,64.6550006 115.064079,64.4142874 L115.064079,63.2998224 C114.521145,64.3707271 113.500754,65.1794215 111.611162,65.1794215 C109.179198,65.1794215 107.050738,63.6273733 107.050738,60.3487528 L107.050738,53.3542115 C107.050738,53.1137812 107.246329,52.9169112 107.485198,52.9169112 L109.635016,52.9169112 C109.873885,52.9169112 110.069476,53.1137812 110.069476,53.3542115 L110.069476,60.3487528 C110.069476,61.1795101 110.937834,62.3816615 112.458444,62.3816615 C113.956853,62.3816615 115.064079,61.2886937 115.064079,59.6930852 Z M136.08559,64.8516726 C135.846721,64.8516726 135.651411,64.6550854 135.651411,64.4143723 L135.651411,53.3760765 C135.651411,53.1356462 135.846721,52.9387762 136.08559,52.9387762 L138.235408,52.9387762 C138.474558,52.9387762 138.669868,53.1356462 138.669868,53.3760765 L138.669868,64.4143723 C138.669868,64.6550854 138.474558,64.8516726 138.235408,64.8516726 L136.08559,64.8516726 Z M127.703126,52.6328923 C130.938813,52.6328923 133.54473,55.4524324 133.54473,58.9279229 C133.54473,62.4034134 130.938813,65.2014562 127.703126,65.2014562 C126.226356,65.2014562 124.87998,64.6111291 123.859308,63.649408 L123.859308,64.414542 C123.859308,64.6549723 123.663717,64.8515594 123.425129,64.8515594 L121.27503,64.8515594 C121.036161,64.8515594 120.84057,64.6549723 120.84057,64.414542 L120.84057,48.6326981 C120.84057,48.3922678 121.036161,48.1956807 121.27503,48.1956807 L123.425129,48.1956807 C123.663717,48.1956807 123.859308,48.3922678 123.859308,48.6326981 L123.859308,54.1849405 C124.9019,53.2229365 126.226356,52.6328923 127.703126,52.6328923 Z M127.20375,62.2286064 C129.027864,62.2286064 130.504353,60.7421816 130.526273,58.8843626 C130.526273,57.0262608 129.027864,55.5401188 127.20375,55.5401188 C125.357717,55.5401188 123.880947,57.0483238 123.880947,58.8843626 C123.880947,60.7421816 125.379637,62.2286064 127.20375,62.2286064 Z M151.895268,64.1301554 C152.134136,64.4144289 151.938545,64.8517291 151.569563,64.8517291 L149.028562,64.8517291 C148.898168,64.8517291 148.789694,64.807886 148.702858,64.6987023 L144.533335,59.6493835 L144.533335,64.4144289 C144.533335,64.6548592 144.337744,64.8517291 144.098875,64.8517291 L141.948776,64.8517291 C141.710188,64.8517291 141.514878,64.6548592 141.514878,64.4144289 L141.514878,48.632585 C141.514878,48.3921547 141.710188,48.1955676 141.948776,48.1955676 L144.098875,48.1955676 C144.337744,48.1955676 144.533335,48.3921547 144.533335,48.632585 L144.533335,57.9225283 L148.528905,53.0918596 C148.594384,53.0044561 148.724497,52.9388328 148.854891,52.9388328 L151.373972,52.9388328 C151.743235,52.9388328 151.938545,53.3758502 151.699676,53.6601237 L147.464956,58.774783 L151.895268,64.1301554 Z M137.149848,47.7802737 C138.157312,47.7802737 138.973962,48.6022625 138.973962,49.6163125 C138.973962,50.6303626 138.157312,51.4523513 137.149848,51.4523513 C136.142385,51.4523513 135.325735,50.6303626 135.325735,49.6163125 C135.325735,48.6022625 136.142385,47.7802737 137.149848,47.7802737 Z" id="Combined-Shape"></path>
        </g>
    </g>
</svg>